<svg width="560" height="561" viewBox="0 0 560 561" fill="none" xmlns="http://www.w3.org/2000/svg">
<path d="M90.8123 418.067C31.254 347.935 52.1236 243.985 87.5715 212.487C123.02 180.99 179.273 163.685 209.414 126.88C239.555 90.0737 274.262 63.7222 337.713 82.7134C401.164 101.705 400.216 151.037 419.252 181.558C438.288 212.081 523.149 229.129 518.316 307.459C513.482 385.789 459.621 385.656 435.055 404.954C410.489 424.252 371.745 515.385 294.202 516.334C199.173 517.498 141.217 477.418 90.8123 418.067Z" fill="#EEEEFF"/>
<g opacity="0.3">
<path d="M305.425 40.5332L302.071 52.2067C298.997 53.0429 296.07 54.2328 293.358 55.7564L282.604 49.8514L272.992 59.3408L278.974 69.9564C277.431 72.6341 276.225 75.5234 275.378 78.5582L263.553 81.8694V95.3184L275.378 98.6297C276.226 101.664 277.431 104.554 278.974 107.231L272.992 117.847L282.604 127.336L293.358 121.431C296.07 122.955 298.997 124.145 302.071 124.981L305.425 136.654H319.049L322.403 124.981C325.476 124.145 328.404 122.955 331.116 121.431L341.869 127.336L351.482 117.847L345.5 107.231C347.043 104.554 348.249 101.664 349.095 98.6297L360.921 95.3184V81.8694L349.095 78.5582C348.248 75.5234 347.042 72.6341 345.5 69.9564L351.482 59.3408L341.869 49.8514L331.116 55.7564C328.404 54.2328 325.476 53.0429 322.403 52.2067L319.049 40.5332H305.425ZM312.237 63.4782C326.247 63.4782 337.678 74.7632 337.678 88.5938C337.678 102.423 326.247 113.709 312.237 113.709C298.227 113.709 286.796 102.424 286.796 88.5938C286.796 74.7632 298.227 63.4782 312.237 63.4782Z" stroke="#7371FC" stroke-width="1.15538" stroke-miterlimit="10"/>
</g>
<g opacity="0.3">
<path d="M504.254 261.773L502.022 269.541C499.975 270.098 498.029 270.89 496.223 271.903L489.068 267.974L482.671 274.289L486.652 281.352C485.625 283.134 484.823 285.057 484.259 287.076L476.39 289.279V298.228L484.259 300.431C484.823 302.45 485.624 304.373 486.652 306.155L482.671 313.218L489.068 319.533L496.223 315.604C498.028 316.618 499.975 317.409 502.022 317.966L504.254 325.733H513.319L515.551 317.966C517.596 317.409 519.544 316.617 521.349 315.604L528.504 319.533L534.901 313.218L530.92 306.155C531.947 304.372 532.749 302.45 533.313 300.431L541.182 298.228V289.279L533.313 287.076C532.75 285.057 531.948 283.133 530.92 281.352L534.901 274.289L528.504 267.974L521.349 271.903C519.544 270.889 517.596 270.098 515.551 269.541L513.319 261.773H504.254ZM508.787 277.043C518.109 277.043 525.716 284.552 525.716 293.755C525.716 302.957 518.109 310.466 508.787 310.466C499.464 310.466 491.857 302.957 491.857 293.755C491.858 284.552 499.465 277.043 508.787 277.043Z" stroke="#7371FC" stroke-width="1.15538" stroke-miterlimit="10"/>
</g>
<g opacity="0.3">
<path d="M97.8543 282.232L93.0049 299.111C88.5596 300.32 84.3282 302.042 80.4057 304.244L64.8567 295.706L50.9578 309.427L59.6066 324.777C57.3756 328.648 55.6315 332.825 54.4068 337.214L37.3086 342.001V361.447L54.4068 366.235C55.6315 370.623 57.3756 374.801 59.6066 378.672L50.9578 394.021L64.8567 407.742L80.4057 399.204C84.327 401.407 88.5596 403.128 93.0049 404.337L97.8543 421.216H117.553L122.402 404.337C126.848 403.128 131.079 401.406 135.002 399.204L150.551 407.742L164.449 394.021L155.8 378.672C158.031 374.801 159.775 370.622 160.999 366.235L178.098 361.448V342.002L160.999 337.215C159.775 332.826 158.032 328.649 155.8 324.778L164.449 309.428L150.551 295.707L135.002 304.245C131.08 302.042 126.848 300.321 122.402 299.112L117.553 282.234H97.8543V282.232ZM107.703 315.409C127.96 315.409 144.489 331.726 144.489 351.724C144.489 371.721 127.959 388.038 107.703 388.038C87.4458 388.038 70.9173 371.721 70.9173 351.724C70.9173 331.726 87.4469 315.409 107.703 315.409Z" stroke="#7371FC" stroke-width="1.15538" stroke-miterlimit="10"/>
</g>
<path d="M273.05 498.925C275.575 493.103 280.337 488.456 286.333 485.966L286.519 485.889L285.712 485.528C280.092 483.019 275.623 478.597 273.161 473.101L273.049 472.852L272.426 474.08C270.035 478.798 266.131 482.642 261.297 485.037L259.579 485.887L259.683 485.93C265.435 488.302 270.072 492.661 272.685 498.16L273.05 498.925Z" fill="#32338C"/>
<path d="M289.995 506.922C291.257 504.01 293.639 501.687 296.636 500.442L296.729 500.404L296.326 500.224C293.517 498.97 291.282 496.758 290.051 494.01L289.995 493.885L289.684 494.499C288.488 496.859 286.536 498.78 284.119 499.978L283.26 500.403L283.312 500.425C286.189 501.611 288.506 503.791 289.813 506.54L289.995 506.922Z" fill="#7371FC"/>
<path d="M507.375 170.515C505.487 166.162 501.926 162.688 497.443 160.827L497.304 160.77L497.908 160.5C502.109 158.625 505.449 155.317 507.292 151.208L507.376 151.021L507.841 151.939C509.629 155.467 512.549 158.341 516.162 160.131L517.446 160.768L517.369 160.8C513.068 162.573 509.601 165.833 507.648 169.943L507.375 170.515Z" fill="#7371FC"/>
<path d="M494.707 176.494C493.763 174.318 491.982 172.58 489.741 171.65L489.672 171.621L489.974 171.487C492.075 170.549 493.745 168.895 494.666 166.841L494.707 166.748L494.94 167.207C495.834 168.971 497.294 170.407 499.101 171.303L499.743 171.621L499.704 171.637C497.554 172.523 495.821 174.153 494.844 176.208L494.707 176.494Z" fill="#32338C"/>
<path d="M60.3406 268.535C58.4532 264.181 54.8923 260.708 50.409 258.846L50.269 258.788L50.8724 258.519C55.0737 256.644 58.4152 253.336 60.2566 249.228L60.3406 249.041L60.8063 249.959C62.594 253.486 65.5135 256.361 69.127 258.151L70.411 258.787L70.3338 258.818C66.0318 260.591 62.566 263.851 60.6126 267.962L60.3406 268.535Z" fill="#7371FC"/>
<path d="M47.6719 274.513C46.7283 272.337 44.9483 270.6 42.7061 269.67L42.6367 269.64L42.9378 269.506C45.039 268.568 46.7092 266.915 47.6294 264.86L47.6708 264.768L47.9037 265.227C48.7981 266.991 50.2578 268.427 52.0646 269.323L52.7071 269.64L52.668 269.656C50.5164 270.543 48.7847 272.173 47.8074 274.228L47.6719 274.513Z" fill="#32338C"/>
<path d="M400.763 129.81C409.007 130.861 416.926 133.559 424.304 137.386C445.751 148.51 465.039 163.772 480.796 182.085C487.157 189.479 493.162 197.889 494.159 207.593C495.301 218.703 489.716 229.274 484.307 239.045C479.803 247.181 474.369 256.071 465.374 258.432C458.003 260.366 450.28 257.274 443.621 253.568C417.59 239.08 398.07 214.349 386.871 186.743C381.43 173.333 379.41 160.596 380.335 146.234C380.595 142.214 370.061 141.843 372.889 138.659C376.912 134.127 389.454 128.368 400.763 129.81Z" fill="#32338C"/>
<path d="M466.674 153.979C465.813 155.142 464.864 156.241 463.826 157.243C460.273 160.674 455.877 163.131 451.301 164.99C447.907 166.37 444.315 167.45 440.652 167.378C440.244 167.37 439.836 167.34 439.427 167.3C439.606 168.005 439.867 168.681 440.297 169.264C441.65 171.1 444.169 171.572 446.446 171.704C452.567 172.062 458.767 170.985 464.41 168.586C465.023 168.325 465.668 168.017 466.014 167.448C466.368 166.865 466.335 166.138 466.298 165.458C466.083 161.549 466.298 157.745 466.674 153.979Z" fill="#F8AB73"/>
<path d="M451.3 164.993C455.876 163.135 460.272 160.677 463.825 157.246C464.863 156.244 465.812 155.145 466.673 153.981C467.293 147.77 468.357 141.66 468.682 135.345C462.316 133.85 452.036 140.455 447.6 144.626C441.884 150.001 438.293 157.897 439.141 165.697C439.199 166.236 439.292 166.777 439.425 167.303C439.833 167.343 440.242 167.372 440.65 167.381C444.313 167.453 447.906 166.372 451.3 164.993Z" fill="#FE814B"/>
<path d="M494.184 107.167C498.063 101.714 501.982 96.1872 504.375 89.9374C506.767 83.6887 507.502 76.5344 504.941 70.3529C502.38 64.1714 496.011 59.3511 489.345 59.9265C491.436 55.6369 488.891 50.877 485.393 47.6295C481.896 44.3821 477.086 42.9492 472.37 42.2216C459.02 40.1629 445.404 42.9637 431.909 42.3704C426.931 42.1522 421.83 41.4234 417.502 38.9528C413.174 36.4822 409.742 31.9631 409.744 26.9805C407.998 30.7742 406.044 35.3605 406.333 39.5271C406.623 43.6936 408.901 47.9273 412.748 49.5539C408.871 50.6487 404.823 48.2564 402.308 45.1097C399.793 41.963 398.796 37.8479 398.53 33.828C394.269 36.5158 391.317 40.97 389.73 45.75C388.284 50.1035 387.526 54.776 388.288 59.2996C389.051 63.8244 391.47 68.1879 395.338 70.6529C393.494 70.9653 391.503 71.1612 389.779 70.4335C389.665 72.9858 391.121 75.4195 393.101 77.036C395.08 78.6524 397.532 79.567 399.981 80.2991C408.379 82.8133 417.201 83.494 425.805 85.1686C446.121 89.1225 464.887 98.528 484.199 105.974C486.902 107.019 491.371 107.862 494.184 107.167Z" fill="#FE642F"/>
<path d="M472.993 104.124C470.086 93.8099 471.621 82.704 474.844 72.4824C464.692 82.0435 449.75 84.3977 435.93 82.5226C440.535 80.2838 444.7 77.1493 448.128 73.3455C434.392 72.4522 420.224 75.7937 406.521 74.5164C404.951 79.2628 403.938 84.1984 403.381 88.7691C402.18 98.6156 402.953 108.616 404.585 118.4C406.366 129.075 409.336 139.923 416.093 148.376C422.851 156.828 434.153 162.373 444.64 159.7C448.551 158.703 452.119 156.657 455.412 154.324C467.542 145.731 476.352 133.142 482.266 119.445C477.873 115.379 474.624 109.912 472.993 104.124Z" fill="#F8AB74"/>
<path d="M448.127 73.345C444.7 77.1477 440.534 80.2832 435.929 82.5221C449.748 84.3971 464.691 82.043 474.843 72.4819C471.621 82.7034 470.084 93.8093 472.992 104.124C474.623 109.91 477.872 115.379 482.265 119.444C483.033 117.666 483.758 115.87 484.429 114.06C487.317 106.27 489.407 98.0878 489.48 89.7794C489.553 81.4709 487.499 72.9968 482.704 66.2119C475.948 56.6542 464.477 51.3806 452.975 49.2178C447.357 48.1611 441.541 47.7502 435.932 48.8585C428.464 50.335 418.295 54.5329 413.453 60.8196C410.437 64.7376 408.17 69.521 406.519 74.5159C420.224 75.7921 434.391 72.4505 448.127 73.345Z" fill="#FE642F"/>
<path d="M476.553 104.186C474.948 108.46 474.945 113.201 475.762 117.692C476.393 121.158 477.805 124.908 480.997 126.4C483.354 127.503 486.223 127.067 488.486 125.779C490.748 124.492 492.488 122.452 493.965 120.309C496.195 117.075 497.965 113.427 498.42 109.525C498.874 105.622 497.881 101.438 495.195 98.5711C492.573 95.7725 487.955 93.734 484.333 95.4087C480.684 97.0957 477.949 100.469 476.553 104.186Z" fill="#F8AB73"/>
<path d="M493.386 102.757C492.239 101.278 490.321 100.696 488.592 100.901C486.837 101.05 485.285 102.086 484.183 103.424C483.056 104.768 482.324 106.399 481.876 108.122C481.403 109.844 481.216 111.654 480.979 113.479L479.886 113.016C480.988 111.703 482.613 110.612 484.52 110.734C485.448 110.792 486.364 111.241 486.992 111.898C487.631 112.56 488.01 113.395 488.194 114.245C488.366 115.098 488.355 115.995 488.084 116.826C487.817 117.652 487.36 118.384 486.782 118.989C485.605 120.18 484.092 120.93 482.529 121.271C484.011 120.684 485.405 119.83 486.35 118.612C486.809 118.006 487.19 117.335 487.359 116.62C487.541 115.915 487.496 115.157 487.308 114.46C486.928 113.056 485.798 111.909 484.449 111.878C483.103 111.833 481.743 112.675 480.845 113.794L479.524 115.438L479.752 113.331C479.95 111.499 480.204 109.635 480.715 107.799C481.235 105.974 482.096 104.172 483.43 102.754C484.745 101.35 486.585 100.295 488.553 100.26C490.465 100.234 492.484 101.091 493.386 102.757Z" fill="#32338C"/>
<path d="M435.364 92.5312C436.383 97.6314 436.332 102.96 435.404 108.113C434.476 113.268 432.661 118.279 429.993 122.771L429.854 122.301C430.618 122.76 431.411 123.185 432.249 123.522C433.085 123.859 433.955 124.125 434.845 124.338C433.93 124.29 433.018 124.132 432.126 123.889C431.234 123.646 430.351 123.335 429.517 122.912L429.225 122.764L429.378 122.443C431.588 117.794 433.217 112.909 434.21 107.887C435.203 102.863 435.554 97.7198 435.364 92.5312Z" fill="#32338C"/>
<path d="M431.863 138.653C433.056 139.419 434.312 139.953 435.598 140.073C439.103 140.404 442.409 137.201 444.725 134.154C440.07 133.835 435.306 135.504 431.863 138.653Z" fill="#FE632E"/>
<path d="M434.29 132.834C429.821 132.372 423.195 128.365 423.195 128.365C423.195 128.365 426.978 135.522 431.863 138.656C435.305 135.508 440.07 133.839 444.725 134.157C446.735 131.511 448.001 128.982 448.001 128.982C448.001 128.982 438.758 133.296 434.29 132.834Z" fill="#32338C"/>
<path d="M422.421 102.966C422.538 105.348 421.394 107.341 419.864 107.417C418.334 107.493 416.998 105.622 416.881 103.24C416.763 100.858 417.907 98.8655 419.438 98.7894C420.967 98.7132 422.303 100.583 422.421 102.966Z" fill="#32328C"/>
<path d="M453.551 103.552C453.668 105.934 452.524 107.927 450.994 108.003C449.464 108.079 448.128 106.208 448.011 103.826C447.893 101.444 449.037 99.4514 450.568 99.3753C452.097 99.2992 453.433 101.17 453.551 103.552Z" fill="#32328C"/>
<path d="M410.568 93.715C410.965 92.2664 411.641 90.8817 412.521 89.5809C412.974 88.9417 413.478 88.3238 414.039 87.7405C414.615 87.1775 415.244 86.6502 415.924 86.1733C416.611 85.6998 417.31 85.1961 418.078 84.7774C418.847 84.3677 419.713 84.1628 420.589 84.202C422.323 84.296 424.152 84.9834 425.215 86.7207L425.081 87.2032C423.391 88.1816 422.315 88.7122 421.22 89.1667C420.683 89.3861 420.149 89.4902 419.557 89.5059C418.964 89.5137 418.338 89.5529 417.756 89.732C417.168 89.9078 416.584 90.1384 416.009 90.4205C415.421 90.6824 414.841 90.9981 414.278 91.3608C413.128 92.066 412.052 92.9627 410.997 93.9691L410.568 93.715Z" fill="#FE642E"/>
<path d="M458.722 93.9691C457.667 92.9616 456.591 92.0649 455.441 91.3608C454.878 90.9981 454.298 90.6824 453.71 90.4205C453.136 90.1384 452.551 89.9078 451.963 89.732C451.381 89.5529 450.757 89.5137 450.162 89.5059C449.569 89.4902 449.036 89.3861 448.498 89.1667C447.403 88.7122 446.327 88.1816 444.637 87.2032L444.503 86.7207C445.566 84.9834 447.395 84.296 449.129 84.202C450.007 84.1628 450.872 84.3677 451.64 84.7774C452.408 85.1949 453.107 85.6998 453.794 86.1733C454.474 86.6502 455.103 87.1775 455.679 87.7405C456.24 88.3238 456.744 88.9417 457.197 89.5809C458.077 90.8817 458.753 92.2664 459.15 93.715L458.722 93.9691Z" fill="#FE642E"/>
<path opacity="0.4" d="M420.866 123.064C420.866 124.967 418.289 126.511 415.11 126.511C411.931 126.511 409.354 124.968 409.354 123.064C409.354 121.161 411.931 119.617 415.11 119.617C418.289 119.618 420.866 121.161 420.866 123.064Z" fill="#F8AB74"/>
<path opacity="0.4" d="M460.784 123.064C460.784 124.967 458.207 126.511 455.028 126.511C451.849 126.511 449.272 124.968 449.272 123.064C449.272 121.161 451.849 119.617 455.028 119.617C458.207 119.618 460.784 121.161 460.784 123.064Z" fill="#F8AB74"/>
<path d="M409.93 27.166C409.123 31.0919 409.729 35.2047 411.435 38.7466C413.099 42.303 415.84 45.3702 419.273 47.205C422.728 49.0095 426.709 49.5737 430.644 49.6442C434.602 49.7025 438.579 49.4338 442.547 49.0722C450.483 48.4453 458.486 47.3684 466.554 47.9931C470.554 48.3535 474.663 49.3107 478.024 51.6816C479.665 52.8872 481.088 54.3929 482.104 56.1482C483.121 57.8956 483.698 59.9106 483.619 61.9144C483.562 59.9095 482.879 57.9795 481.821 56.3205C480.752 54.6593 479.303 53.269 477.676 52.1865C474.386 50.0148 470.4 49.1909 466.481 48.9524C458.56 48.5349 450.62 49.586 442.655 50.317C438.663 50.6417 434.651 50.8767 430.617 50.7794C426.61 50.6517 422.423 50.1021 418.812 48.0435C415.235 45.9938 412.48 42.715 410.88 38.9962C409.311 35.2707 408.844 31.0359 409.93 27.166Z" fill="#F8AB74"/>
<path d="M479.068 68.7702C478.389 64.1738 474.886 60.4461 470.769 58.7256C466.6 56.9356 461.892 56.8852 457.456 57.6531C452.986 58.4368 448.65 59.9088 444.225 61.1827C439.802 62.451 435.309 63.557 430.723 64.2007C426.141 64.8298 421.455 64.9575 416.844 64.3216C412.278 63.6623 407.609 62.3682 403.842 59.4745C400.112 56.6177 397.389 52.4993 396.297 47.9611C395.258 43.4229 395.778 38.5545 397.831 34.4395C396.04 38.6631 395.687 43.4487 396.892 47.81C398.066 52.1735 400.793 56.0725 404.416 58.7021C408.062 61.3227 412.528 62.6066 416.997 63.1932C421.486 63.7753 426.057 63.6119 430.553 62.9626C435.062 62.3682 439.512 61.3126 443.916 60.089C448.315 58.8823 452.697 57.3621 457.307 56.7061C461.874 56.0345 466.744 56.1923 471.018 58.1681C473.135 59.1621 475.019 60.6342 476.46 62.4544C477.904 64.2668 478.881 66.4743 479.068 68.7702Z" fill="#F8AB74"/>
<path d="M474.383 66.6162C472.913 64.1982 470.346 62.781 467.736 62.3321C465.091 61.9045 462.352 62.3948 459.872 63.4348C457.373 64.4501 455.144 66.0867 453.054 67.8811C450.971 69.6924 448.998 71.6839 446.917 73.5645C448.64 71.3559 450.367 69.1461 452.393 67.1636C454.395 65.1788 456.71 63.3956 459.395 62.2784C460.736 61.7399 462.141 61.3425 463.585 61.1612C465.029 61.0067 466.509 61.038 467.932 61.3784C469.351 61.7119 470.704 62.3433 471.84 63.2366C472.949 64.1501 473.89 65.2941 474.383 66.6162Z" fill="#F8AB74"/>
<path d="M490.098 66.3795C491.687 65.8209 493.497 65.9653 495.104 66.5665C496.722 67.1855 498.125 68.3217 499.201 69.6774C501.36 72.4368 502.236 75.9529 502.345 79.356C502.416 82.7871 501.698 86.1968 500.397 89.3178C499.744 90.8783 498.989 92.3873 498.14 93.8359C497.26 95.2676 496.338 96.6647 495.308 97.9822C496.101 96.5102 496.913 95.0583 497.599 93.5471C498.327 92.0593 498.97 90.5358 499.496 88.9786C500.548 85.8722 501.188 82.6292 501.094 79.3873C501.02 76.1678 500.231 72.9002 498.432 70.2472C497.527 68.9318 496.321 67.8157 494.861 67.1239C493.427 66.384 491.748 66.0997 490.098 66.3795Z" fill="#F8AB74"/>
<path d="M481.32 71.6976C482.487 71.4424 483.75 71.7289 484.84 72.2853C485.934 72.8596 486.857 73.754 487.552 74.7671C488.949 76.8201 489.647 79.162 490.136 81.5139C490.582 83.8826 490.669 86.3185 490.355 88.6984C490.205 89.8884 489.96 91.0638 489.613 92.2056C489.426 92.7732 489.234 93.3363 489.008 93.887C488.9 94.1546 488.805 94.4579 488.605 94.7064C488.43 94.9415 488.087 95.1822 487.804 95.0121C488.111 95.1072 488.332 94.8397 488.447 94.6035C488.584 94.3617 488.625 94.0807 488.691 93.7896C488.824 93.2198 488.923 92.6422 489.015 92.0679C489.213 90.9216 489.319 89.7653 489.382 88.6134C489.488 86.3084 489.353 84.0002 488.907 81.7501C488.47 79.5113 487.837 77.2444 486.732 75.2955C486.165 74.3294 485.447 73.454 484.521 72.8081C483.617 72.1297 482.503 71.7278 481.32 71.6976Z" fill="#F8AB74"/>
<path d="M218.022 105.865L77.6694 123.979L97.3583 276.536L237.711 258.423L218.022 105.865Z" fill="#EEEEFF"/>
<path d="M213.73 72.6187L73.377 90.7324L77.6676 123.978L218.02 105.864L213.73 72.6187Z" fill="#7371FC"/>
<path d="M77.6679 123.981L58.5571 126.447L78.246 279.005L97.3568 276.539L77.6679 123.981Z" fill="#91C4FB"/>
<path d="M73.3794 90.7348L54.2686 93.2012L58.5592 126.447L77.67 123.98L73.3794 90.7348Z" fill="#443DC3"/>
<path d="M109.967 130.73L88.5176 133.498L92.2762 162.621L113.725 159.853L109.967 130.73Z" fill="#FEFFFD"/>
<path d="M135.422 127.447L113.973 130.215L117.732 159.338L139.181 156.57L135.422 127.447Z" fill="#FEFFFD"/>
<path d="M160.879 124.16L139.43 126.928L143.189 156.051L164.638 153.283L160.879 124.16Z" fill="#FEFFFD"/>
<path d="M186.336 120.876L164.887 123.645L168.646 152.768L190.095 149.999L186.336 120.876Z" fill="#FEFFFD"/>
<path d="M211.793 117.585L190.344 120.354L194.102 149.477L215.551 146.708L211.793 117.585Z" fill="#FEFFFD"/>
<path d="M114.215 163.658L92.7661 166.426L96.5247 195.549L117.974 192.781L114.215 163.658Z" fill="#FEFFFD"/>
<path d="M139.673 160.371L118.224 163.139L121.983 192.262L143.432 189.494L139.673 160.371Z" fill="#FEFFFD"/>
<path d="M165.129 157.085L143.68 159.854L147.439 188.977L168.888 186.208L165.129 157.085Z" fill="#FEFFFD"/>
<path d="M190.586 153.802L169.137 156.57L172.896 185.693L194.345 182.925L190.586 153.802Z" fill="#FEFFFD"/>
<path d="M216.042 150.519L194.593 153.287L198.351 182.41L219.8 179.642L216.042 150.519Z" fill="#FEFFFD"/>
<path d="M118.465 196.583L97.0161 199.352L100.775 228.475L122.224 225.706L118.465 196.583Z" fill="#FEFFFD"/>
<path d="M143.921 193.296L122.472 196.064L126.23 225.188L147.679 222.419L143.921 193.296Z" fill="#FEFFFD"/>
<path d="M169.38 190.013L147.931 192.781L151.69 221.904L173.139 219.136L169.38 190.013Z" fill="#FEFFFD"/>
<path d="M194.835 186.728L173.386 189.496L177.144 218.619L198.593 215.851L194.835 186.728Z" fill="#FEFFFD"/>
<path d="M220.292 183.445L198.843 186.213L202.601 215.336L224.05 212.568L220.292 183.445Z" fill="#FEFFFD"/>
<path d="M122.714 229.509L101.265 232.277L105.023 261.4L126.472 258.632L122.714 229.509Z" fill="#FEFFFD"/>
<path d="M148.172 226.224L126.723 228.992L130.482 258.115L151.931 255.347L148.172 226.224Z" fill="#FEFFFD"/>
<path d="M173.628 222.939L152.179 225.707L155.937 254.83L177.386 252.062L173.628 222.939Z" fill="#FEFFFD"/>
<path d="M199.087 219.656L177.638 222.424L181.397 251.547L202.846 248.779L199.087 219.656Z" fill="#FEFFFD"/>
<path d="M224.54 216.371L203.091 219.139L206.85 248.262L228.299 245.494L224.54 216.371Z" fill="#FEFFFD"/>
<path d="M65.5446 91.7439L64.3255 82.2993C63.5609 76.3764 67.7432 70.9549 73.6661 70.1915L80.2327 69.3441C86.1556 68.5795 91.577 72.7617 92.3405 78.6846L94.4405 94.9623C95.2051 100.885 91.0229 106.307 85.1 107.07" stroke="#32338C" stroke-width="4.65364" stroke-miterlimit="10" stroke-linecap="round" stroke-linejoin="round"/>
<path d="M84.2702 89.326L83.0511 79.8813C82.2865 73.9584 86.4687 68.537 92.3917 67.7735L98.9583 66.9261C104.881 66.1615 110.303 70.3437 111.066 76.2667L113.166 92.5443C113.931 98.4673 109.748 103.888 103.826 104.652" stroke="#32338C" stroke-width="4.65364" stroke-miterlimit="10" stroke-linecap="round" stroke-linejoin="round"/>
<path d="M102.998 86.9119L101.779 77.4672C101.014 71.5443 105.196 66.1229 111.119 65.3595L117.686 64.512C123.609 63.7475 129.03 67.9297 129.794 73.8526L131.894 90.1303C132.658 96.0532 128.476 101.475 122.553 102.238" stroke="#32338C" stroke-width="4.65364" stroke-miterlimit="10" stroke-linecap="round" stroke-linejoin="round"/>
<path d="M121.724 84.4939L120.505 75.0493C119.74 69.1264 123.922 63.7061 129.845 62.9415L136.412 62.0941C142.335 61.3295 147.755 65.5117 148.52 71.4346L150.62 87.7123C151.384 93.6352 147.202 99.0567 141.279 99.8201" stroke="#32338C" stroke-width="4.65364" stroke-miterlimit="10" stroke-linecap="round" stroke-linejoin="round"/>
<path d="M140.451 82.0838L139.232 72.6391C138.467 66.7162 142.649 61.2948 148.572 60.5313L155.139 59.6839C161.062 58.9193 166.482 63.1016 167.247 69.0245L169.347 85.3022C170.111 91.2251 165.929 96.6454 160.006 97.41" stroke="#32338C" stroke-width="4.65364" stroke-miterlimit="10" stroke-linecap="round" stroke-linejoin="round"/>
<path d="M159.178 79.6658L157.959 70.2212C157.195 64.2982 161.377 58.8768 167.3 58.1134L173.866 57.2659C179.789 56.5014 185.21 60.6836 185.974 66.6065L188.074 82.8842C188.839 88.8071 184.657 94.2285 178.734 94.992" stroke="#32338C" stroke-width="4.65364" stroke-miterlimit="10" stroke-linecap="round" stroke-linejoin="round"/>
<path d="M177.905 77.2478L176.686 67.8032C175.922 61.8803 180.104 56.46 186.027 55.6954L192.594 54.848C198.516 54.0834 203.937 58.2656 204.701 64.1885L206.801 80.4662C207.566 86.3891 203.384 91.8106 197.461 92.574" stroke="#32338C" stroke-width="4.65364" stroke-miterlimit="10" stroke-linecap="round" stroke-linejoin="round"/>
<path d="M278.156 458.275C372.896 458.275 449.698 381.473 449.698 286.733C449.698 191.993 372.896 115.191 278.156 115.191C183.416 115.191 106.614 191.993 106.614 286.733C106.614 381.473 183.416 458.275 278.156 458.275Z" fill="#32338C"/>
<path d="M286.226 458.275C380.966 458.275 457.768 381.473 457.768 286.733C457.768 191.993 380.966 115.191 286.226 115.191C191.486 115.191 114.684 191.993 114.684 286.733C114.684 381.473 191.486 458.275 286.226 458.275Z" fill="#7371FC"/>
<path d="M312.976 371.434C343.932 358.945 372.028 338.171 390.253 310.205C411.422 277.725 417.813 238.335 415.958 199.154C387.824 157.564 340.218 130.223 286.226 130.223C199.786 130.223 129.712 200.296 129.712 286.736C129.712 315.388 137.417 342.238 150.859 365.337C201.094 389.088 261.302 392.28 312.976 371.434Z" fill="white"/>
<path d="M415.958 199.154C417.812 238.336 411.421 277.725 390.253 310.205C372.028 338.171 343.932 358.946 312.975 371.434C261.302 392.28 201.094 389.088 150.861 365.339C177.973 411.928 228.439 443.25 286.227 443.25C372.667 443.25 442.74 373.177 442.74 286.737C442.74 254.289 432.865 224.148 415.958 199.154Z" fill="#EEEEFF"/>
<path d="M284.518 288.757L210.884 223.115L287.935 284.71L284.518 288.757Z" fill="#32338C"/>
<path d="M289.159 284.879L323.141 409.627L283.293 288.59L289.159 284.879Z" fill="#32338C"/>
<path d="M286.227 298.331C292.631 298.331 297.823 293.139 297.823 286.735C297.823 280.33 292.631 275.139 286.227 275.139C279.822 275.139 274.63 280.33 274.63 286.735C274.63 293.139 279.822 298.331 286.227 298.331Z" fill="#FE814B"/>
<path d="M286.227 130.223V163.493" stroke="#32338C" stroke-width="4.48622" stroke-miterlimit="10" stroke-linecap="round" stroke-linejoin="round"/>
<path d="M286.227 409.975V443.245" stroke="#32338C" stroke-width="4.48622" stroke-miterlimit="10" stroke-linecap="round" stroke-linejoin="round"/>
<path d="M442.739 286.736H409.469" stroke="#32338C" stroke-width="4.48622" stroke-miterlimit="10" stroke-linecap="round" stroke-linejoin="round"/>
<path d="M162.985 286.736H129.713" stroke="#32338C" stroke-width="4.48622" stroke-miterlimit="10" stroke-linecap="round" stroke-linejoin="round"/>
<path d="M154.116 202.814L182.2 220.655" stroke="#32338C" stroke-width="4.48622" stroke-miterlimit="10" stroke-linecap="round" stroke-linejoin="round"/>
<path d="M390.251 352.824L418.334 370.665" stroke="#32338C" stroke-width="4.48622" stroke-miterlimit="10" stroke-linecap="round" stroke-linejoin="round"/>
<path d="M370.15 154.629L352.31 182.712" stroke="#32338C" stroke-width="4.48622" stroke-miterlimit="10" stroke-linecap="round" stroke-linejoin="round"/>
<path d="M220.141 390.764L202.3 418.847" stroke="#32338C" stroke-width="4.48622" stroke-miterlimit="10" stroke-linecap="round" stroke-linejoin="round"/>
<path d="M418.334 202.814L390.251 220.655" stroke="#32338C" stroke-width="4.48622" stroke-miterlimit="10" stroke-linecap="round" stroke-linejoin="round"/>
<path d="M182.2 352.824L154.116 370.665" stroke="#32338C" stroke-width="4.48622" stroke-miterlimit="10" stroke-linecap="round" stroke-linejoin="round"/>
<path d="M202.3 154.629L220.141 182.712" stroke="#32338C" stroke-width="4.48622" stroke-miterlimit="10" stroke-linecap="round" stroke-linejoin="round"/>
<path d="M352.31 390.764L370.15 418.847" stroke="#32338C" stroke-width="4.48622" stroke-miterlimit="10" stroke-linecap="round" stroke-linejoin="round"/>
<path d="M199.741 373.07L48.6885 430.318L80.1533 513.34L231.206 456.091L199.741 373.07Z" fill="#F8AB74"/>
<path d="M139.933 443.215L48.6748 430.325L143.65 453.023L199.73 373.082L139.933 443.215Z" fill="#FE814B"/>
<path d="M505.513 354.595L364.686 321.359L321.815 503.016L462.642 536.251L505.513 354.595Z" fill="#32338C"/>
<path d="M508.126 355.212L367.299 321.977L324.428 503.633L465.255 536.868L508.126 355.212Z" fill="#91C4FB"/>
<path d="M492.451 370.055L374.686 342.262L338.458 495.767L456.224 523.559L492.451 370.055Z" fill="white"/>
<path d="M463.313 324.286L421.152 314.334C414.381 312.735 407.597 316.929 405.999 323.699L404.34 330.728L471.018 346.467L472.677 339.438C474.276 332.668 470.083 325.884 463.313 324.286Z" fill="#32338C"/>
<path d="M402.636 372.726C401.16 378.978 394.895 382.85 388.643 381.374C382.391 379.899 378.519 373.633 379.995 367.38C381.471 361.128 387.736 357.256 393.988 358.732C400.241 360.208 404.113 366.472 402.636 372.726Z" fill="#EEEEFE"/>
<path d="M385.884 365.123L390.745 372.988L404.728 364.346" stroke="#FE814B" stroke-width="3.69536" stroke-miterlimit="10" stroke-linecap="round" stroke-linejoin="round"/>
<path d="M413.982 367.932L478.074 383.061" stroke="#91C4FB" stroke-width="3.69536" stroke-miterlimit="10" stroke-linecap="round" stroke-linejoin="round"/>
<path d="M412.312 375.008L476.404 390.137" stroke="#91C4FB" stroke-width="3.69536" stroke-miterlimit="10" stroke-linecap="round" stroke-linejoin="round"/>
<path d="M410.642 382.088L474.734 397.217" stroke="#91C4FB" stroke-width="3.69536" stroke-miterlimit="10" stroke-linecap="round" stroke-linejoin="round"/>
<path d="M394.128 408.771C392.652 415.023 386.387 418.895 380.135 417.42C373.883 415.945 370.011 409.679 371.486 403.427C372.961 397.175 379.227 393.303 385.479 394.778C391.731 396.254 395.603 402.518 394.128 408.771Z" fill="#EEEEFE"/>
<path d="M377.375 401.169L382.236 409.033L396.218 400.393" stroke="#FE814B" stroke-width="3.69536" stroke-miterlimit="10" stroke-linecap="round" stroke-linejoin="round"/>
<path d="M405.473 403.98L469.565 419.11" stroke="#91C4FB" stroke-width="3.69536" stroke-miterlimit="10" stroke-linecap="round" stroke-linejoin="round"/>
<path d="M403.802 411.057L467.895 426.186" stroke="#91C4FB" stroke-width="3.69536" stroke-miterlimit="10" stroke-linecap="round" stroke-linejoin="round"/>
<path d="M402.132 418.137L466.224 433.266" stroke="#91C4FB" stroke-width="3.69536" stroke-miterlimit="10" stroke-linecap="round" stroke-linejoin="round"/>
<path d="M385.619 444.816C384.144 451.068 377.878 454.94 371.625 453.465C365.373 451.99 361.501 445.724 362.976 439.472C364.452 433.22 370.717 429.348 376.969 430.823C383.222 432.299 387.094 438.564 385.619 444.816Z" fill="#EEEEFE"/>
<path d="M368.867 437.214L373.728 445.078L387.709 436.438" stroke="#FE814B" stroke-width="3.69536" stroke-miterlimit="10" stroke-linecap="round" stroke-linejoin="round"/>
<path d="M396.964 440.023L461.058 455.153" stroke="#91C4FB" stroke-width="3.69536" stroke-miterlimit="10" stroke-linecap="round" stroke-linejoin="round"/>
<path d="M395.294 447.1L459.386 462.229" stroke="#91C4FB" stroke-width="3.69536" stroke-miterlimit="10" stroke-linecap="round" stroke-linejoin="round"/>
<path d="M393.623 454.18L457.716 469.31" stroke="#91C4FB" stroke-width="3.69536" stroke-miterlimit="10" stroke-linecap="round" stroke-linejoin="round"/>
<path d="M478.598 359.436L391.762 338.938C389.024 338.292 387.328 335.548 387.975 332.81L389.305 327.176L486.056 350.014L484.727 355.649C484.08 358.387 481.336 360.083 478.598 359.436Z" fill="#91C4FB"/>
<path d="M377.374 480.925C375.897 487.177 369.633 491.049 363.38 489.574C357.128 488.097 353.256 481.833 354.731 475.58C356.206 469.327 362.472 465.455 368.724 466.931C374.978 468.407 378.85 474.672 377.374 480.925Z" fill="#EEEEFE"/>
<path d="M360.622 473.322L365.484 481.187L379.466 472.545" stroke="#FE814B" stroke-width="3.69536" stroke-miterlimit="10" stroke-linecap="round" stroke-linejoin="round"/>
<path d="M388.72 476.129L452.812 491.258" stroke="#91C4FB" stroke-width="3.69536" stroke-miterlimit="10" stroke-linecap="round" stroke-linejoin="round"/>
<path d="M387.049 483.205L451.142 498.334" stroke="#91C4FB" stroke-width="3.69536" stroke-miterlimit="10" stroke-linecap="round" stroke-linejoin="round"/>
<path d="M385.379 490.285L449.471 505.414" stroke="#91C4FB" stroke-width="3.69536" stroke-miterlimit="10" stroke-linecap="round" stroke-linejoin="round"/>
<path d="M466.674 189.773C465.138 193.471 463.274 196.981 461.328 200.445C459.35 203.891 457.289 207.289 454.896 210.5C456.429 206.801 458.293 203.291 460.241 199.828C462.222 196.384 464.282 192.985 466.674 189.773Z" fill="white"/>
<path d="M483.166 241.082C483.166 241.082 471.87 258.811 460.688 272.015C449.506 285.22 433.738 300.028 433.738 300.028L349.405 264.701L361.785 235.815L423.529 254.894L459.103 204.545L483.166 241.082Z" fill="#32338C"/>
<path d="M348.487 230.221L361.785 235.81L353.066 256.155L344.422 253.21L325.342 253.993L319.74 251.192C317.682 250.162 316.9 247.621 318.026 245.612L319.555 242.889L318.201 241.832C316.271 240.325 316.12 237.46 317.88 235.757L319.398 234.287L317.34 231.5C315.873 229.512 316.522 226.684 318.71 225.535L320.806 224.435L320.128 220.733C319.743 218.632 321.062 216.595 323.138 216.089C325.827 215.433 328.669 215.984 330.918 217.6L348.487 230.221Z" fill="#F8AB72"/>
<path d="M348.723 231.585C344.676 222.923 340.565 214.021 339.83 204.489C339.795 204.024 339.733 203.494 339.351 203.225C339.13 203.068 338.845 203.038 338.574 203.035C336.337 203.015 334.289 204.676 333.489 206.765C332.688 208.854 333.001 211.255 333.952 213.28C334.162 213.726 334.407 214.184 334.385 214.676C334.367 215.102 334.151 215.489 333.941 215.86C333.237 217.098 332.533 218.336 331.829 219.574C336.236 224.934 342.168 229.305 348.723 231.585Z" fill="#F8AB72"/>
<path d="M341 225.818C340.197 225.319 339.44 224.767 338.687 224.206C337.931 223.652 337.206 223.059 336.481 222.467C335.766 221.862 335.051 221.258 334.367 220.615C333.68 219.978 332.998 219.333 332.361 218.635C333.164 219.133 333.923 219.686 334.675 220.246C335.432 220.801 336.156 221.393 336.882 221.986C337.597 222.591 338.311 223.195 338.995 223.838C339.681 224.476 340.362 225.121 341 225.818Z" fill="#32338C"/>
<path d="M336.618 112.039L357.027 119.918C359.675 120.94 361.315 123.605 361.036 126.431L360.005 136.815L352.942 148.393C352.942 148.393 350.047 147.582 351.089 144.34C352.132 141.098 355.605 132.415 355.605 132.415V126.279C355.605 126.279 352.259 140.439 349.064 143.066C345.869 145.694 334.314 140.561 331.188 138.014C329.663 136.772 332.374 132.764 332.743 126.789C333.129 120.511 331.338 112.278 336.618 112.039Z" fill="#F8AB74"/>
<path d="M349.672 116.787C350.018 119.133 350.078 121.523 349.914 123.899C349.751 126.275 349.321 128.632 348.72 130.938C348.07 133.232 347.244 135.479 346.179 137.611C345.115 139.741 343.852 141.771 342.362 143.617C343.639 141.621 344.782 139.553 345.744 137.405C346.705 135.258 347.522 133.047 348.117 130.774C348.759 128.514 349.174 126.194 349.436 123.856C349.697 121.517 349.761 119.155 349.672 116.787Z" fill="#32338C"/>
<path d="M341.905 114.09C342.123 116.399 342.111 118.731 341.927 121.049C341.745 123.37 341.347 125.67 340.824 127.939C340.251 130.196 339.553 132.425 338.649 134.57C338.187 135.638 337.703 136.695 337.172 137.728C336.889 138.237 336.634 138.754 336.324 139.254C336.02 139.744 335.607 140.233 335.038 140.402C335.58 140.167 335.916 139.668 336.18 139.171C336.442 138.663 336.656 138.12 336.895 137.596C337.368 136.542 337.797 135.472 338.202 134.393C339.003 132.234 339.697 130.035 340.217 127.793C340.784 125.562 341.168 123.289 341.45 121.003C341.731 118.715 341.866 116.408 341.905 114.09Z" fill="#32338C"/>
</svg>
